<?xml version="1.0" encoding="UTF-8" standalone="no" ?>
<!DOCTYPE svg PUBLIC "-//W3C//DTD SVG 1.1//EN" "http://www.w3.org/Graphics/SVG/1.1/DTD/svg11.dtd">
<svg xmlns="http://www.w3.org/2000/svg" xmlns:xlink="http://www.w3.org/1999/xlink" version="1.1" width="1080" height="1080" viewBox="0 0 1080 1080" xml:space="preserve">
<desc>Created with Fabric.js 5.2.4</desc>
<defs>
</defs>
<g transform="matrix(1 0 0 1 540 540)" id="6e5b71f3-8d5a-4d07-b2fb-c57063bd0650"  >
<rect style="stroke: none; stroke-width: 1; stroke-dasharray: none; stroke-linecap: butt; stroke-dashoffset: 0; stroke-linejoin: miter; stroke-miterlimit: 4; fill: rgb(255,255,255); fill-rule: nonzero; opacity: 1; visibility: hidden;" vector-effect="non-scaling-stroke"  x="-540" y="-540" rx="0" ry="0" width="1080" height="1080" />
</g>
<g transform="matrix(1 0 0 1 540 540)" id="b2547e16-c5df-4023-9a48-abef5ebb975e"  >
</g>
<g transform="matrix(1 0 0 1 540 540)" id="a03362f0-38dd-45bc-bbd0-7d5284987431"  >
<path style="stroke: rgb(0,0,0); stroke-width: 0; stroke-dasharray: none; stroke-linecap: butt; stroke-dashoffset: 0; stroke-linejoin: miter; stroke-miterlimit: 4; fill: rgb(255,0,0); fill-rule: nonzero; opacity: 1;" vector-effect="non-scaling-stroke"  transform=" translate(-480, 480)" d="M 280 -120 Q 247 -120 223.5 -143.5 Q 200 -167 200 -200 L 200 -720 L 160 -720 L 160 -800 L 360 -800 L 360 -840 L 600 -840 L 600 -800 L 800 -800 L 800 -720 L 760 -720 L 760 -200 Q 760 -167 736.5 -143.5 Q 713 -120 680 -120 L 280 -120 Z M 680 -720 L 280 -720 L 280 -200 L 680 -200 L 680 -720 Z M 360 -280 L 440 -280 L 440 -640 L 360 -640 L 360 -280 Z M 520 -280 L 600 -280 L 600 -640 L 520 -640 L 520 -280 Z M 280 -720 L 280 -200 L 280 -720 Z" stroke-linecap="round" />
</g>
</svg>